<?xml version="1.0" standalone="no"?>
<!DOCTYPE svg PUBLIC "-//W3C//DTD SVG 20010904//EN"
 "http://www.w3.org/TR/2001/REC-SVG-20010904/DTD/svg10.dtd">
<svg version="1.0" xmlns="http://www.w3.org/2000/svg"
 width="108.000000pt" height="108.000000pt" viewBox="0 0 108.000000 108.000000"
 preserveAspectRatio="xMidYMid meet">
<metadata>
Created by potrace 1.11, written by Peter Selinger 2001-2013
</metadata>
<g transform="translate(0.000000,108.000000) scale(0.100000,-0.100000)"
fill="#000000" stroke="none">
<path d="M327 1060 c-10 -12 -24 -19 -32 -16 -7 2 -19 -2 -25 -10 -7 -8 -9
-14 -4 -14 5 0 5 -4 -1 -8 -5 -4 -21 -21 -35 -37 l-25 -30 26 23 c14 12 31 22
37 22 7 0 12 4 12 9 0 8 19 17 98 48 7 3 12 -4 12 -19 0 -19 -9 -26 -49 -41
-26 -9 -66 -34 -88 -54 -22 -21 -30 -31 -19 -21 28 22 96 56 121 60 11 2 22 6
25 10 9 11 82 25 125 23 54 -2 137 -44 153 -78 7 -15 17 -27 21 -27 11 0 10
-33 -2 -47 -5 -7 -7 -13 -4 -13 3 0 -19 -23 -48 -51 -30 -28 -66 -71 -80 -95
-27 -47 -46 -56 -121 -58 -24 0 -44 -4 -44 -8 0 -5 4 -8 10 -8 5 0 7 -7 4 -15
-4 -8 -10 -15 -16 -15 -5 0 -6 5 -2 12 5 7 3 8 -5 3 -7 -4 -24 -2 -37 6 -19
10 -27 10 -36 1 -9 -9 -8 -16 7 -30 11 -9 14 -10 7 -3 -32 38 0 42 43 5 l30
-25 -30 5 -30 6 24 -14 c31 -18 46 -12 61 23 11 26 14 28 68 26 l57 -2 5 -56
c5 -58 32 -100 70 -110 39 -10 39 10 0 47 -37 35 -40 42 -40 91 0 68 21 116
67 154 34 28 38 29 47 13 6 -9 10 -78 10 -153 l1 -137 -31 -20 c-39 -25 -88
-39 -136 -38 -21 1 -38 -1 -38 -4 0 -3 -20 -4 -45 -2 -25 2 -45 7 -45 11 0 3
-11 7 -24 7 -19 1 -23 -2 -18 -19 4 -17 2 -19 -14 -14 -19 7 -19 7 0 -8 10 -8
23 -16 29 -18 7 -2 6 -10 -1 -23 -11 -19 -11 -19 -12 0 0 11 -3 17 -6 14 -3
-4 -18 -3 -32 2 -18 5 -31 3 -39 -6 -10 -10 -4 -14 27 -19 23 -4 40 -12 40
-20 0 -15 -60 -24 -89 -13 -11 4 -23 3 -26 -2 -5 -8 54 -30 83 -30 15 0 16
-17 0 -22 -6 -2 -8 -9 -4 -16 11 -19 36 -2 37 27 2 22 2 23 6 4 3 -14 9 -20
19 -16 10 4 14 -2 14 -20 0 -14 4 -28 9 -31 5 -3 7 -15 4 -27 -5 -19 22 -87
41 -100 4 -4 5 -16 1 -28 -6 -19 -2 -21 29 -21 27 0 36 4 37 18 0 10 3 12 6 5
5 -14 24 -18 22 -5 -3 19 2 23 16 12 10 -9 15 -9 15 -1 0 20 18 12 24 -11 5
-19 8 -21 16 -8 6 10 10 11 10 3 0 -10 53 -13 230 -13 l230 0 0 540 0 540
-189 0 c-176 -1 -189 -3 -194 -20 -4 -15 -12 -18 -38 -14 -19 3 -38 11 -44 17
-6 8 -56 13 -140 15 -123 4 -131 3 -148 -18z m108 -10 c-28 -12 -37 -12 -30 0
3 6 16 10 28 9 21 0 21 -1 2 -9z m55 -4 c0 -3 -4 -8 -10 -11 -5 -3 -10 -1 -10
4 0 6 5 11 10 11 6 0 10 -2 10 -4z m95 -6 c-3 -5 -12 -10 -18 -10 -7 0 -6 4 3
10 19 12 23 12 15 0z m145 -290 c0 -5 -5 -10 -11 -10 -5 0 -7 5 -4 10 3 6 8
10 11 10 2 0 4 -4 4 -10z"/>
<path d="M315 420 c3 -5 11 -10 16 -10 6 0 7 5 4 10 -3 6 -11 10 -16 10 -6 0
-7 -4 -4 -10z"/>
<path d="M210 256 c0 -9 30 -14 35 -6 4 6 -3 10 -14 10 -12 0 -21 -2 -21 -4z"/>
<path d="M207 233 c-10 -9 -9 -23 1 -23 5 0 9 7 9 15 0 17 -1 18 -10 8z"/>
<path d="M314 119 c15 -9 16 -13 5 -21 -11 -8 -11 -9 1 -5 22 6 18 31 -5 35
-19 3 -19 2 -1 -9z"/>
</g>
</svg>
